<?xml version="1.0" encoding="UTF-8"?>
<!-- Generator: Adobe Illustrator 18.0.0, SVG Export Plug-In . SVG Version: 6.00 Build 0)  -->
<!DOCTYPE svg PUBLIC "-//W3C//DTD SVG 1.1//EN" "http://www.w3.org/Graphics/SVG/1.1/DTD/svg11.dtd">
<svg version="1.1" id="Слой_1" xmlns:x="http://ns.adobe.com/Extensibility/1.0/" xmlns:i="http://ns.adobe.com/AdobeIllustrator/10.0/" xmlns:graph="http://ns.adobe.com/Graphs/1.0/" xmlns="http://www.w3.org/2000/svg" xmlns:xlink="http://www.w3.org/1999/xlink" x="0px" y="0px" width="128.9px" height="31.8px" viewBox="0 0 128.9 31.8" enable-background="new 0 0 128.9 31.8" xml:space="preserve">
<metadata>
	<sfw xmlns="http://ns.adobe.com/SaveForWeb/1.0/">
		<slices/>
		<sliceSourceBounds width="128.9" height="31.8" x="-61.7" y="-18.4" bottomLeftOrigin="true"/>
	</sfw>
</metadata>
<g>
	<g>
		<path fill="#2F3587" d="M16.5,8.8c2-1.6,4.1-3,6.1-4.2c-2-1.7-4-3.2-6.1-4.6c-2.1,1.3-4.1,2.9-6.1,4.6C12.5,5.8,14.5,7.2,16.5,8.8    z"/>
		<path fill="#1172B6" d="M11.6,13.3c1.6-1.6,3.3-3.1,5-4.5c-2-1.6-4.1-3-6.1-4.2c-1.1,1-2.3,2-3.3,3.1c-0.8,0.8-1.6,1.6-2.3,2.5    c2,1.2,4,2.5,5.9,4.1C11,13.9,11.3,13.6,11.6,13.3z"/>
		<path fill="#30A7DF" d="M5.6,20.2c1.5-2.1,3.2-4.1,5.1-6c-1.9-1.5-3.9-2.9-5.9-4.1c-1.8,2-3.4,4-4.8,6.1    C1.9,17.4,3.8,18.7,5.6,20.2z"/>
		<path fill="#1172B6" d="M22.4,14.2c1.9-1.5,3.9-2.9,5.9-4.1c-0.7-0.8-1.5-1.7-2.3-2.5c-1.1-1.1-2.2-2.1-3.3-3.1    c-2.1,1.2-4.1,2.6-6.1,4.2c1.7,1.4,3.4,2.8,5,4.5C21.8,13.6,22.1,13.9,22.4,14.2z"/>
		<path fill="#30A7DF" d="M27.5,20.2c1.8-1.5,3.7-2.8,5.6-4c-1.4-2.1-3-4.1-4.8-6.1c-2,1.2-4,2.5-5.9,4.1    C24.3,16.1,26,18.2,27.5,20.2z"/>
		<path fill="#6BC3D6" d="M16.5,31.8c1.5-2.1,3.2-4.2,5.1-6.2c-1.5-2.1-3.2-4.1-5.1-6.1c-1.9,2-3.6,4-5.1,6.1    C13.3,27.6,15,29.6,16.5,31.8z"/>
	</g>
	<g>
		<g>
			<path fill="#1A1A1A" d="M57.4,20.4c0.1,0,0.3,0,0.4-0.1v2.5c-0.5,0.2-1.3,0.4-2,0.4c-1.2,0-2.2-0.4-2.7-1.2     c-1.1,0.8-2.3,1.4-3.9,1.4c-2.2,0-3.9-1.3-3.9-3.5c0-2.8,2.7-3.7,4.9-3.7c0.8,0,1.7,0.1,2.4,0.3v-0.4c0-0.8-0.7-1.4-2.3-1.4     c-1.5,0-2.8,0.4-3.9,0.9v-3.3c0.9-0.3,2.7-0.7,4.4-0.7c3.6,0,5.9,1.2,5.9,5.2v3.1C56.7,20.2,57.1,20.4,57.4,20.4z M50.9,20.6     c0.7,0,1.2-0.1,1.8-0.6v-1.5c-0.4-0.1-0.9-0.2-1.4-0.2c-0.9,0-1.8,0.3-1.8,1.2C49.5,20,50,20.6,50.9,20.6z"/>
			<path fill="#1A1A1A" d="M62.7,5.8v17.1h-4V5.8H62.7z"/>
			<path fill="#1A1A1A" d="M75.9,20.4c0.1,0,0.3,0,0.4-0.1v2.5c-0.5,0.2-1.3,0.4-2,0.4c-1.2,0-2.2-0.4-2.7-1.2     c-1.1,0.8-2.3,1.4-3.9,1.4c-2.2,0-3.9-1.3-3.9-3.5c0-2.8,2.7-3.7,4.9-3.7c0.8,0,1.7,0.1,2.4,0.3v-0.4c0-0.8-0.7-1.4-2.3-1.4     c-1.5,0-2.8,0.4-3.9,0.9v-3.3c0.9-0.3,2.7-0.7,4.4-0.7c3.6,0,5.9,1.2,5.9,5.2v3.1C75.2,20.2,75.5,20.4,75.9,20.4z M69.4,20.6     c0.7,0,1.2-0.1,1.8-0.6v-1.5c-0.4-0.1-0.9-0.2-1.4-0.2c-0.9,0-1.8,0.3-1.8,1.2C68,20,68.5,20.6,69.4,20.6z"/>
			<path fill="#1A1A1A" d="M81.2,6.5v6.1c0.7-0.7,1.8-1.3,3.3-1.3c3.8,0,5.4,3.1,5.4,6c0,2.9-1.7,6-5.4,6c-2,0-3.3-0.9-3.8-1.9v1.5     h-3.5V6.5H81.2z M83.5,14.6c-1.1,0-1.9,0.7-2.3,1.4v2.6c0.4,0.7,1.2,1.4,2.3,1.4c1.7,0,2.4-1.4,2.4-2.7     C85.9,16,85.2,14.6,83.5,14.6z"/>
			<path fill="#1A1A1A" d="M102.2,11.7v11.2h-3.5v-1.3c-0.9,1-2.1,1.6-3.6,1.6c-3.1,0-4.5-2.1-4.5-4.6v-7h4v6.4     c0,1.2,0.7,1.8,1.7,1.8c0.9,0,1.6-0.5,1.9-1v-7.2H102.2z"/>
			<path fill="#1A1A1A" d="M108.4,11.3c2,0,3.3,0.9,3.8,1.9v-1.5h3.5v10.8c0,4.5-3.3,6-6.6,6c-1.8,0-3.5-0.4-4.8-1.1v-3.4     c1.2,0.7,2.8,1.2,4.3,1.2c1.8,0,3.2-0.5,3.2-2.5V22c-0.7,0.7-1.8,1.3-3.3,1.3c-3.8,0-5.4-3.1-5.4-6     C103,14.4,104.7,11.3,108.4,11.3z M109.5,14.6c-1.7,0-2.4,1.4-2.4,2.7c0,1.3,0.7,2.7,2.4,2.7c1.1,0,1.9-0.7,2.3-1.4V16     C111.4,15.3,110.6,14.6,109.5,14.6z"/>
			<path fill="#1A1A1A" d="M128.5,20.4c0.1,0,0.3,0,0.4-0.1v2.5c-0.5,0.2-1.3,0.4-2,0.4c-1.2,0-2.2-0.4-2.7-1.2     c-1.1,0.8-2.3,1.4-3.9,1.4c-2.2,0-3.9-1.3-3.9-3.5c0-2.8,2.7-3.7,4.9-3.7c0.8,0,1.7,0.1,2.4,0.3v-0.4c0-0.8-0.7-1.4-2.3-1.4     c-1.5,0-2.8,0.4-3.9,0.9v-3.3c0.9-0.3,2.7-0.7,4.4-0.7c3.6,0,5.9,1.2,5.9,5.2v3.1C127.7,20.2,128.1,20.4,128.5,20.4z M121.9,20.6     c0.7,0,1.2-0.1,1.8-0.6v-1.5c-0.4-0.1-0.9-0.2-1.4-0.2c-0.9,0-1.8,0.3-1.8,1.2C120.5,20,121,20.6,121.9,20.6z"/>
		</g>
	</g>
</g>
<g>
</g>
<g>
</g>
<g>
</g>
<g>
</g>
<g>
</g>
<g>
</g>
</svg>