<!DOCTYPE svg PUBLIC "-//W3C//DTD SVG 20010904//EN" "http://www.w3.org/TR/2001/REC-SVG-20010904/DTD/svg10.dtd">
<svg version="1.0" xmlns="http://www.w3.org/2000/svg" width="1600px" height="615px" viewBox="0 0 16000 6150" preserveAspectRatio="xMidYMid meet">
<g id="layer101" fill="#0f0f0e" stroke="none">
 <path d="M10885 6139 c-18 -28 8 -81 69 -144 35 -36 69 -65 75 -65 31 0 80 -109 106 -235 24 -117 28 -166 15 -207 -8 -24 -14 -45 -15 -48 -1 -3 -9 -30 -18 -61 l-18 -56 -61 -17 c-34 -9 -80 -25 -102 -35 -23 -10 -59 -24 -81 -31 -22 -7 -44 -16 -50 -20 -5 -4 -37 -17 -70 -29 -69 -26 -332 -156 -355 -175 -8 -8 -31 -22 -50 -31 -19 -10 -37 -21 -40 -24 -3 -4 -36 -24 -75 -45 -90 -49 -92 -51 -70 -76 10 -11 15 -20 12 -20 -3 0 4 -10 16 -23 27 -28 44 -51 77 -97 13 -19 30 -41 36 -47 7 -7 22 -29 34 -49 13 -20 32 -46 44 -59 12 -13 29 -34 38 -47 25 -34 226 -276 267 -322 100 -110 227 -231 327 -311 32 -26 64 -53 69 -59 6 -7 28 -23 50 -36 22 -13 42 -27 45 -30 3 -4 16 -13 29 -20 24 -12 24 -13 6 -27 -11 -7 -26 -11 -33 -8 -8 3 -19 2 -25 -2 -7 -4 -50 -18 -97 -30 -105 -28 -114 -31 -117 -33 -2 -2 -6 -3 -10 -4 -27 -6 -99 -33 -166 -62 -43 -19 -85 -34 -92 -34 -8 0 -15 -5 -15 -11 0 -5 -4 -7 -10 -4 -5 3 -10 2 -10 -3 0 -4 -26 -19 -57 -32 -32 -13 -62 -28 -68 -33 -5 -4 -46 -29 -90 -55 -44 -26 -101 -62 -127 -79 -26 -18 -49 -33 -51 -33 -3 0 -16 -9 -29 -20 -12 -10 -66 -55 -118 -98 -103 -86 -271 -257 -335 -342 -22 -29 -63 -80 -90 -114 -91 -110 -187 -250 -236 -341 -12 -22 -24 -42 -28 -45 -10 -8 -39 -60 -78 -140 -20 -41 -40 -78 -46 -81 -5 -3 -8 -9 -8 -13 1 -3 -17 -44 -39 -90 -40 -86 -72 -157 -75 -166 -1 -3 -9 -22 -18 -44 -9 -21 -17 -41 -17 -45 0 -3 -6 -17 -13 -31 -7 -14 -20 -45 -29 -70 -10 -25 -23 -58 -29 -75 -7 -16 -13 -32 -14 -35 -2 -10 -47 -145 -52 -160 -7 -18 -5 -11 -38 -125 -14 -49 -28 -98 -30 -108 -2 -9 -6 -21 -9 -25 -3 -5 -8 -24 -11 -43 -3 -19 -15 -81 -26 -139 -12 -58 -23 -116 -24 -130 -2 -14 -9 -65 -15 -115 -12 -87 -9 -432 4 -520 3 -22 8 -65 11 -95 3 -30 8 -56 10 -58 4 -4 48 18 55 28 3 4 28 19 55 34 28 14 59 32 70 39 11 6 47 29 80 49 33 20 69 44 80 52 62 48 74 56 86 56 7 0 10 3 6 6 -11 11 219 167 321 217 86 43 212 90 212 79 0 -4 4 -1 8 6 5 6 50 21 101 32 186 41 241 45 586 45 171 0 439 -4 597 -9 294 -9 358 -6 628 31 63 8 162 31 220 49 57 19 111 34 117 34 7 0 13 3 13 8 0 4 23 15 51 26 80 28 259 130 356 203 105 79 280 251 354 348 29 39 59 74 66 78 7 4 13 14 13 21 0 7 9 22 20 34 12 12 18 22 16 22 -5 0 35 64 54 87 14 17 210 403 210 414 0 9 44 112 60 141 6 10 10 22 10 27 0 5 5 22 11 38 6 15 9 28 7 29 -2 0 2 7 8 15 6 8 22 46 34 84 12 39 27 76 33 82 5 7 6 13 2 13 -4 0 -3 6 2 13 6 6 18 37 27 67 10 30 20 62 23 70 4 8 7 17 8 20 1 3 7 17 13 31 6 15 16 46 22 69 6 23 16 50 21 59 7 14 36 106 46 151 36 155 45 226 46 368 2 147 3 152 23 152 11 0 24 3 28 8 4 4 11 7 14 7 13 1 91 45 97 55 11 18 26 11 16 -8 -18 -34 -34 -185 -28 -271 10 -136 51 -259 118 -353 l20 -27 -29 -54 c-24 -46 -51 -107 -56 -127 -1 -3 -4 -9 -7 -15 -5 -8 -51 -139 -54 -155 -1 -3 -7 -25 -14 -50 -69 -240 -86 -477 -42 -580 18 -42 46 -68 83 -75 116 -22 217 92 158 178 -13 18 -35 40 -50 49 -51 29 -65 78 -65 223 1 143 5 174 35 285 11 41 21 80 23 85 1 6 5 15 8 20 4 6 12 28 19 50 7 22 19 53 27 69 l15 28 41 -39 c23 -22 58 -51 79 -66 46 -34 187 -107 206 -107 8 0 12 -6 9 -12 -3 -7 -13 -33 -23 -58 -10 -25 -20 -47 -24 -50 -6 -5 -61 -171 -62 -187 0 -5 -4 -15 -9 -24 -8 -16 -46 -177 -55 -231 -2 -16 -6 -43 -9 -60 -19 -118 -17 -220 6 -308 8 -29 67 -80 96 -81 73 -3 108 10 143 54 45 57 27 142 -36 167 -12 5 -32 30 -45 57 -22 43 -24 61 -24 178 0 72 4 146 7 165 17 84 58 230 72 259 9 17 16 33 16 36 0 3 6 18 14 34 l15 28 53 -13 c128 -34 400 -36 540 -5 24 6 58 13 77 16 19 3 39 9 45 13 6 4 13 7 16 7 16 3 126 40 130 45 3 3 34 19 70 34 209 93 420 270 555 466 50 73 138 276 136 315 0 2 6 22 13 43 23 65 15 280 -13 372 -24 75 -24 75 -80 102 -87 40 -138 52 -241 51 -107 0 -130 -4 -191 -30 -43 -19 -43 -19 -44 -73 0 -66 -17 -75 -32 -18 -7 24 -28 63 -49 86 -35 42 -36 44 -13 41 13 -2 38 -13 55 -25 30 -22 31 -22 42 -3 7 11 17 17 22 14 6 -3 10 -1 10 5 0 14 90 71 101 64 5 -3 9 -1 9 4 0 20 197 68 232 56 10 -3 18 -1 18 5 0 15 -77 89 -124 120 -23 14 -43 28 -46 32 -16 18 -221 104 -275 115 -5 1 -23 5 -40 8 -165 35 -359 35 -530 0 -16 -3 -37 -7 -45 -8 -8 -1 -22 -5 -30 -9 -8 -3 -35 -11 -59 -17 -24 -6 -55 -16 -70 -22 -14 -6 -28 -12 -31 -13 -3 -1 -23 -9 -44 -18 -22 -10 -50 -20 -63 -23 -13 -4 -23 -10 -23 -14 0 -4 -26 -19 -57 -34 -50 -24 -103 -55 -138 -84 -5 -4 -28 -21 -50 -37 -55 -41 -186 -173 -224 -225 l-31 -43 0 43 c0 23 -12 77 -26 120 -23 66 -36 87 -89 141 -136 140 -311 175 -483 98 -40 -17 -72 -36 -72 -42 0 -6 -3 -8 -6 -5 -3 4 -21 -10 -40 -30 -19 -20 -34 -31 -34 -26 0 6 3 14 7 17 3 4 8 19 10 35 7 54 8 278 1 323 -19 123 -47 219 -89 303 -29 57 -29 59 -11 72 14 10 253 248 280 278 1 2 5 12 7 22 32 126 47 193 50 214 2 14 6 45 9 70 13 100 18 120 32 120 7 0 32 7 54 16 48 19 80 67 80 118 l0 36 -185 0 c-145 0 -185 -3 -185 -13 0 -7 4 -17 8 -22 5 -6 15 -30 22 -55 8 -25 23 -57 34 -73 25 -34 32 -127 17 -212 -29 -161 -41 -203 -66 -232 -13 -16 -58 -71 -100 -123 -43 -52 -81 -94 -87 -92 -5 1 -7 -2 -4 -7 4 -5 2 -12 -4 -16 -5 -3 -10 -2 -10 3 0 10 -77 109 -115 148 -39 41 -141 121 -182 146 l-43 24 113 110 c121 116 117 109 153 259 7 33 16 83 20 110 3 28 10 67 15 87 5 21 7 49 3 64 -6 23 -4 26 9 21 19 -7 72 10 105 34 29 21 50 72 44 109 l-4 30 -185 0 -185 0 6 -25 c3 -13 11 -37 17 -52 6 -15 10 -30 10 -33 0 -3 13 -27 29 -55 26 -46 28 -57 25 -135 -1 -47 -5 -96 -8 -110 -29 -142 -39 -174 -70 -210 -17 -22 -35 -40 -39 -40 -5 0 -8 -4 -8 -10 0 -16 -64 -97 -87 -110 -18 -11 -27 -9 -55 8 -60 36 -276 108 -383 127 -11 2 -43 8 -70 14 -28 5 -91 12 -140 16 -50 3 -109 8 -132 11 l-43 5 29 37 c17 21 34 60 40 90 15 70 13 245 -3 357 -13 84 -12 91 5 111 12 13 19 35 19 62 l0 42 -140 0 -140 0 0 -24 c0 -50 17 -77 111 -183 32 -35 40 -79 46 -241 6 -152 6 -152 -21 -190 -14 -21 -26 -43 -26 -49 0 -11 -68 -23 -139 -23 -44 0 -223 -23 -266 -33 -11 -3 -57 -14 -103 -25 l-83 -20 7 22 c3 11 23 55 43 98 l37 76 -13 89 c-13 77 -38 209 -46 238 -29 99 -41 134 -54 154 -11 17 -12 26 -4 34 6 6 11 28 11 49 l0 38 -134 0 c-85 0 -137 -4 -141 -11z m2197 -2296 c-4 -34 -27 -60 -196 -231 -105 -106 -205 -204 -222 -217 l-31 -24 -82 51 c-44 28 -80 53 -78 54 2 2 41 15 88 28 107 31 203 79 302 150 43 31 81 56 85 56 7 1 88 106 113 148 20 32 26 27 21 -15z m88 -268 c8 -5 2 -17 -21 -41 -18 -18 -37 -30 -42 -27 -6 3 -7 2 -4 -4 3 -5 -52 -67 -122 -137 l-128 -128 -42 21 c-34 18 -41 26 -41 51 0 16 4 32 10 35 5 3 53 61 106 128 54 67 122 150 152 185 l55 64 32 -70 c18 -38 38 -73 45 -77z m117 -104 c62 -40 72 -19 -96 -212 l-122 -139 -42 21 c-72 36 -72 32 10 137 105 135 187 232 193 229 3 -1 28 -17 57 -36z m1506 -458 c88 -44 87 -191 -2 -238 -109 -56 -236 42 -202 156 28 92 115 127 204 82z m-1713 -196 c0 -2 -17 -19 -37 -38 l-38 -34 34 38 c33 34 41 42 41 34z m-130 -130 c0 -2 -15 -16 -32 -33 l-33 -29 29 33 c28 30 36 37 36 29z m-2232 -1884 c-10 -2 -28 -2 -40 0 -13 2 -5 4 17 4 22 1 32 -1 23 -4z m420 -10 c-32 -2 -86 -2 -120 0 -35 2 -9 3 57 3 66 0 94 -1 63 -3z m260 0 c-27 -2 -69 -2 -95 0 -27 2 -5 3 47 3 52 0 74 -1 48 -3z"/>
 <path d="M3190 5897 c-227 -53 -333 -228 -326 -537 5 -232 53 -357 173 -452 35 -27 73 -44 139 -63 115 -32 399 -5 464 44 23 17 27 34 17 71 -2 8 -7 32 -12 53 -4 20 -11 40 -16 43 -5 2 -75 0 -156 -7 -112 -9 -158 -9 -190 0 -47 13 -103 55 -103 77 0 8 -4 14 -9 14 -32 0 -50 323 -23 415 15 53 67 109 120 130 33 14 59 16 124 11 262 -20 248 -20 248 2 0 12 4 23 9 27 6 3 10 13 11 23 0 9 1 32 3 51 2 29 -3 37 -28 52 -79 47 -331 73 -445 46z"/>
 <path d="M7970 5899 c-154 -30 -274 -148 -308 -304 -32 -145 -35 -239 -13 -385 10 -69 37 -158 51 -170 3 -3 12 -18 20 -34 8 -15 39 -50 68 -77 75 -69 175 -99 326 -99 60 0 127 5 150 11 130 34 158 44 167 61 11 20 3 76 -18 126 l-14 33 -92 -8 c-229 -20 -301 -6 -351 65 -37 55 -48 124 -44 285 3 129 5 146 29 192 20 40 36 56 80 78 59 31 42 30 310 11 l76 -6 14 33 c7 19 14 56 14 84 l0 50 -65 22 c-114 40 -290 54 -400 32z"/>
 <path d="M3821 5876 c-9 -11 -11 -139 -9 -516 3 -432 5 -502 18 -510 16 -11 638 -14 664 -4 13 5 16 24 16 105 l0 99 -225 0 -225 0 0 95 0 95 188 0 c103 0 193 4 200 9 19 11 18 191 -1 203 -6 4 -96 8 -199 8 l-188 0 0 110 0 110 228 2 227 3 0 100 0 100 -341 3 c-286 2 -343 0 -353 -12z"/>
 <path d="M4702 5368 l3 -523 240 1 c218 0 245 2 291 21 74 29 126 75 159 140 28 53 30 66 30 163 0 58 -4 114 -9 125 -5 11 -10 22 -11 25 0 3 -10 23 -22 45 -23 44 -65 85 -112 109 -51 27 -178 48 -257 44 l-74 -3 0 187 0 188 -120 0 -120 0 2 -522z m392 -68 c57 -13 88 -48 93 -107 10 -103 -37 -143 -172 -143 l-85 0 0 123 c0 68 3 127 7 130 9 10 111 8 157 -3z"/>
 <path d="M5596 5874 c-11 -28 -7 -994 4 -1015 10 -18 23 -19 229 -19 283 0 354 13 424 79 50 46 70 97 75 191 3 79 2 89 -26 140 -16 30 -39 59 -51 65 -26 12 -27 22 -2 30 22 7 64 53 86 94 8 17 18 66 22 109 11 152 -46 255 -174 314 l-63 28 -259 0 c-227 0 -260 -2 -265 -16z m489 -217 c55 -46 41 -167 -21 -196 -14 -6 -72 -11 -129 -11 l-105 0 0 115 0 115 114 0 c105 0 117 -2 141 -23z m-26 -443 c43 -36 44 -93 2 -135 -29 -28 -32 -29 -130 -29 l-101 0 0 95 0 95 99 0 c92 0 102 -2 130 -26z"/>
 <path d="M6576 5874 c-3 -9 -6 -239 -6 -513 0 -373 3 -500 12 -509 14 -14 195 -17 215 -4 10 6 13 80 13 301 l1 293 28 -43 c93 -145 158 -248 170 -271 8 -16 18 -28 23 -28 4 0 8 -5 8 -11 0 -6 34 -61 75 -124 48 -72 83 -115 97 -119 13 -3 60 -6 105 -6 71 0 84 3 93 20 7 13 9 187 8 522 l-3 503 -117 3 -118 3 -1 -203 c-1 -112 0 -252 0 -313 2 -119 1 -120 -46 -35 -10 19 -32 55 -48 80 -149 231 -194 302 -233 365 -63 104 -64 105 -173 105 -79 0 -98 -3 -103 -16z"/>
 <path d="M10379 5568 c-19 -4 -200 -14 -404 -23 -447 -19 -507 -23 -518 -34 -4 -4 23 -8 60 -8 37 0 113 -3 168 -6 229 -15 834 -47 883 -47 l52 0 0 64 0 63 -104 -1 c-57 -1 -119 -4 -137 -8z"/>
 <path d="M9677 4854 c-2 -2 -57 -6 -123 -9 -453 -21 -814 -42 -820 -48 -4 -4 22 -7 57 -8 35 0 84 -2 109 -4 25 -2 97 -7 160 -10 142 -7 179 -9 515 -29 149 -9 280 -16 293 -16 21 0 22 4 22 65 l0 65 -104 -1 c-58 -1 -106 -3 -109 -5z"/>
 <path d="M4206 4122 c-2 -1 -29 -7 -62 -13 -105 -19 -221 -96 -260 -172 -9 -17 -24 -40 -33 -51 -9 -10 -15 -20 -13 -22 1 -2 2 -5 1 -6 0 -2 -2 -14 -5 -28 -2 -14 -9 -50 -15 -80 -15 -78 -20 -228 -9 -275 5 -22 11 -58 13 -80 7 -60 45 -152 78 -188 16 -17 29 -37 29 -44 0 -7 3 -12 8 -11 4 2 28 -12 54 -30 79 -55 154 -74 283 -72 99 2 125 4 200 21 33 7 64 13 68 13 4 1 19 12 33 25 18 17 24 31 19 45 -3 12 -8 42 -12 69 -6 45 -14 54 -47 48 -6 -1 -35 -4 -65 -6 -31 -3 -86 -7 -122 -11 -93 -9 -168 9 -206 49 -42 44 -52 66 -69 153 -22 120 -14 252 22 349 32 83 123 124 249 110 34 -3 80 -8 101 -9 22 -2 55 -7 76 -11 48 -9 60 9 74 116 6 42 4 48 -16 59 -12 6 -24 9 -27 6 -3 -3 -22 2 -42 9 -20 8 -65 19 -101 25 -63 9 -199 18 -204 12z"/>
 <path d="M6063 4107 c-15 -5 -35 -11 -43 -14 -8 -4 -18 -7 -21 -7 -21 -3 -111 -72 -135 -103 -15 -21 -33 -41 -38 -45 -6 -4 -8 -8 -3 -8 4 0 0 -17 -9 -37 -15 -38 -24 -64 -28 -93 -2 -8 -6 -31 -11 -50 -11 -44 -13 -290 -2 -290 4 0 7 -5 7 -11 0 -5 -5 -7 -11 -3 -8 5 -8 1 0 -14 6 -11 13 -37 17 -57 3 -20 14 -57 24 -81 11 -24 17 -44 15 -44 -8 0 27 -41 80 -95 60 -62 103 -83 203 -100 95 -17 181 -10 262 20 25 9 51 17 57 17 7 1 11 3 8 6 -2 3 13 17 34 33 22 15 47 40 58 54 10 15 25 35 34 44 16 18 47 113 55 171 12 82 11 270 -2 347 -15 94 -57 192 -103 245 -30 34 -122 100 -145 104 -146 26 -241 30 -303 11z m237 -219 c19 -13 45 -45 59 -73 25 -48 26 -56 26 -230 0 -174 -1 -182 -27 -237 -33 -71 -78 -98 -164 -98 -141 0 -194 91 -194 335 0 180 36 287 105 315 11 5 52 9 91 9 58 1 77 -3 104 -21z"/>
 <path d="M2925 4103 c-49 -2 -99 -5 -110 -8 -20 -4 -20 -12 -20 -519 l0 -514 115 1 115 2 3 198 2 197 161 0 160 0 -3 -199 -3 -199 100 -1 c55 -1 101 -4 104 -6 2 -3 10 0 18 6 10 9 13 108 13 525 l0 514 -104 0 c-57 0 -110 -2 -118 -5 -10 -4 -12 -48 -10 -218 l3 -212 -161 3 -160 3 0 214 c0 118 -3 215 -7 217 -5 2 -48 2 -98 1z"/>
 <path d="M285 4091 c-3 -5 -5 -195 -5 -421 l0 -412 -135 4 -134 4 -3 -100 c-2 -56 0 -103 4 -106 3 -3 179 -3 390 0 l383 5 0 100 0 100 -138 0 -138 0 3 418 3 417 -112 0 c-61 0 -114 -4 -118 -9z"/>
 <path d="M927 4094 c-10 -10 -9 -1022 1 -1028 13 -8 431 -10 439 -3 3 4 18 7 32 7 14 0 52 13 83 29 31 16 60 26 64 22 4 -3 4 -1 0 6 -3 6 0 15 7 20 46 28 97 150 97 234 0 87 -47 222 -91 259 -49 42 -59 49 -59 45 0 -2 -17 3 -37 11 -59 25 -72 27 -196 28 l-118 1 2 185 2 185 -110 3 c-60 1 -112 -1 -116 -4z m433 -591 c37 -21 50 -52 50 -117 0 -95 -46 -126 -187 -126 l-73 0 0 130 0 130 91 0 c67 0 98 -4 119 -17z"/>
 <path d="M1718 4094 c-4 -3 0 -27 8 -52 8 -26 16 -51 18 -57 2 -5 6 -17 9 -25 3 -8 32 -100 65 -205 33 -104 72 -228 87 -275 15 -47 28 -89 29 -95 2 -5 15 -50 31 -100 16 -49 29 -92 30 -95 4 -23 30 -89 41 -107 14 -22 20 -23 153 -23 l139 0 7 30 c4 17 10 30 14 30 4 0 8 8 9 18 2 21 7 42 15 62 3 8 25 77 49 153 25 75 48 134 53 130 4 -5 5 -3 1 4 -4 7 24 103 61 215 37 112 67 205 68 208 0 3 4 11 8 18 5 6 6 12 2 12 -3 0 0 10 7 23 7 12 11 25 10 30 -1 4 2 7 6 7 4 0 8 8 9 18 1 9 5 32 9 50 l6 32 -120 0 c-84 0 -123 -4 -130 -13 -6 -7 -23 -56 -38 -110 l-27 -97 -160 2 -160 3 -24 80 c-41 138 -30 130 -164 133 -63 1 -118 0 -121 -4z m582 -422 c0 -5 -23 -80 -51 -168 -27 -87 -53 -169 -56 -181 -6 -25 -21 -31 -28 -10 -31 99 -49 171 -61 244 -22 135 -30 123 91 123 58 0 105 -4 105 -8z"/>
 <path d="M4759 3603 c-1 -527 -2 -524 10 -536 6 -6 715 -12 756 -6 6 1 12 1 15 1 3 0 4 232 3 516 l-2 517 -115 3 -116 3 0 -228 c-1 -125 0 -315 0 -420 l1 -193 -161 0 -160 0 4 393 c3 215 2 404 -1 420 l-5 27 -114 0 -114 0 -1 -497z"/>
 <path d="M6876 4084 c-9 -24 -7 -1012 2 -1018 16 -10 428 -7 472 3 54 13 126 48 156 76 11 11 31 38 44 60 13 22 26 42 29 45 8 7 12 44 13 135 1 90 -3 119 -26 163 -8 16 -12 33 -8 37 4 5 1 5 -5 1 -11 -6 -14 -1 -12 20 1 11 -77 67 -119 86 -60 27 -73 29 -204 35 l-118 5 0 184 0 184 -109 0 c-90 0 -110 -3 -115 -16z m444 -591 c36 -33 51 -87 39 -140 -15 -71 -76 -98 -199 -91 l-55 3 -3 128 -3 127 96 0 c89 0 96 -2 125 -27z"/>
 <path d="M7950 4013 c0 -48 0 -238 0 -422 l1 -334 -135 6 c-131 5 -134 5 -140 -16 -9 -32 -7 -160 2 -175 6 -9 93 -12 383 -12 206 -1 379 -1 385 0 12 0 20 163 9 191 -5 13 -26 15 -141 11 l-136 -4 3 418 3 419 -117 3 -117 3 0 -88z"/>
 <path d="M10278 4065 c-3 -3 -52 -7 -109 -10 -57 -2 -309 -14 -558 -26 -461 -24 -515 -33 -261 -45 147 -7 142 -6 609 -33 201 -11 366 -19 367 -18 1 1 0 32 -3 70 -5 54 -9 67 -23 67 -9 0 -19 -2 -22 -5z"/>
 <path d="M6547 2319 c-10 -6 -25 -8 -33 -5 -8 3 -14 1 -14 -4 0 -5 -18 -15 -40 -21 -22 -7 -40 -16 -40 -21 0 -5 -11 -13 -25 -18 -14 -5 -28 -18 -32 -27 -4 -10 -14 -28 -24 -41 -20 -26 -59 -123 -65 -162 -2 -14 -6 -38 -9 -55 -17 -108 -15 -245 6 -341 11 -54 21 -106 21 -114 1 -8 7 -21 15 -28 7 -7 13 -19 13 -26 0 -23 153 -171 168 -162 4 2 18 -1 32 -7 63 -26 213 -33 279 -13 28 8 51 12 51 9 0 -3 7 0 15 7 8 6 18 9 24 6 5 -3 11 -3 13 2 4 11 71 57 83 57 6 1 9 6 8 12 -2 7 8 20 20 30 13 10 24 22 24 26 1 4 10 27 21 50 34 73 44 108 43 152 0 10 4 24 8 30 9 10 6 232 -3 290 -13 78 -16 92 -28 125 -7 19 -25 54 -40 78 -15 24 -28 45 -28 47 0 6 -70 73 -70 67 0 -4 -7 2 -15 12 -8 11 -15 17 -15 13 0 -4 -10 -2 -22 5 -13 7 -26 13 -30 14 -5 1 -9 2 -10 4 -20 15 -275 23 -301 9z m216 -203 c43 -18 71 -51 93 -111 16 -42 19 -78 19 -215 0 -157 -1 -168 -26 -221 -36 -76 -79 -103 -170 -103 -75 -1 -106 15 -146 73 -62 92 -62 429 1 523 12 18 37 41 56 50 42 22 128 23 173 4z"/>
 <path d="M7440 2320 l-75 -5 -3 -509 c-1 -281 1 -513 5 -517 5 -5 52 -9 105 -10 76 -1 100 2 113 14 8 9 15 20 15 25 0 22 77 172 85 165 4 -5 5 -3 2 3 -3 6 16 56 43 111 27 55 67 139 89 187 23 47 45 86 50 86 5 0 19 -24 31 -52 13 -29 47 -102 76 -161 30 -60 51 -114 47 -120 -3 -7 -3 -9 2 -5 11 10 77 -120 69 -134 -4 -7 -2 -8 4 -4 8 5 12 -2 12 -18 0 -14 4 -26 10 -26 5 0 12 -11 16 -25 10 -39 26 -45 132 -48 l101 -2 -2 520 -2 520 -112 3 -112 3 -7 -26 c-3 -13 -5 -131 -3 -260 2 -129 0 -235 -4 -235 -4 0 -17 21 -28 48 -11 26 -38 82 -59 126 -22 43 -37 82 -34 87 3 5 1 9 -5 9 -5 0 -15 16 -21 35 -16 48 -55 67 -133 64 -50 -2 -65 -7 -77 -23 -8 -12 -14 -23 -14 -26 1 -3 -27 -61 -61 -130 -34 -69 -68 -140 -75 -157 -7 -18 -16 -33 -21 -33 -4 0 -5 100 -2 223 3 122 3 239 -1 259 -6 33 -10 36 -44 39 -20 2 -71 2 -112 -1z"/>
 <path d="M4350 1801 l0 -520 383 -3 c210 -2 387 1 392 5 11 9 19 995 8 1023 -4 12 -25 14 -117 12 l-111 -3 -3 -422 -2 -423 -155 0 -155 0 0 413 c0 308 -3 416 -12 425 -8 8 -49 12 -120 12 l-108 0 0 -519z"/>
 <path d="M5377 2313 c-4 -3 -7 -237 -7 -519 l0 -513 218 -3 c176 -3 229 0 280 13 34 9 62 15 62 13 0 -4 20 12 74 58 28 23 72 96 85 138 11 39 5 179 -11 227 -28 88 -50 116 -128 165 -19 12 -37 24 -40 27 -3 4 -14 7 -25 9 -11 1 -31 4 -45 6 -14 2 -71 4 -127 5 l-103 1 0 171 c0 98 -4 178 -10 190 -10 17 -22 19 -114 19 -56 0 -106 -3 -109 -7z m443 -603 c62 -44 60 -170 -2 -208 -36 -22 -142 -38 -182 -28 l-26 6 0 132 0 131 90 -6 c69 -4 97 -11 120 -27z"/>
 </g>
<g id="layer102" fill="#54a044" stroke="none">
 <path d="M3190 5896 c-176 -38 -280 -158 -315 -361 -38 -227 7 -473 107 -575 66 -68 101 -89 194 -115 115 -32 399 -5 464 44 30 22 30 46 -1 139 l-11 35 -62 -6 c-165 -17 -243 -19 -283 -8 -46 13 -103 55 -103 77 0 8 -4 14 -9 14 -32 0 -50 323 -23 415 15 53 67 109 120 130 33 14 59 16 124 11 262 -20 248 -20 248 2 0 12 4 23 9 27 6 3 10 13 10 23 0 9 3 31 7 49 5 26 2 34 -17 46 -86 56 -322 83 -459 53z"/>
 <path d="M7970 5899 c-137 -27 -253 -128 -294 -255 -42 -128 -51 -278 -27 -434 10 -69 37 -158 51 -170 3 -3 12 -18 20 -34 8 -15 39 -50 68 -77 75 -69 175 -99 326 -99 60 0 127 5 150 11 169 43 181 51 171 112 -4 22 -14 55 -21 74 l-15 34 -92 -8 c-229 -20 -301 -6 -351 65 -37 55 -48 124 -44 285 3 129 5 146 29 192 20 40 36 56 80 78 59 31 42 30 310 11 l76 -6 14 33 c7 19 14 56 14 84 l0 50 -65 22 c-114 39 -290 54 -400 32z"/>
 <path d="M3821 5876 c-9 -11 -11 -138 -9 -516 3 -432 5 -502 18 -510 16 -11 638 -14 664 -4 13 5 16 24 16 105 l0 99 -225 0 -225 0 0 95 0 95 184 0 c101 0 191 3 200 6 13 5 16 24 16 104 0 80 -3 99 -16 104 -9 3 -99 6 -200 6 l-184 0 0 110 0 110 228 2 227 3 0 100 0 100 -341 3 c-287 2 -343 0 -353 -12z"/>
 <path d="M4702 5368 l3 -523 240 1 c222 0 244 2 295 22 67 26 126 81 160 148 22 44 25 60 24 159 -1 102 -3 114 -31 170 -52 101 -116 143 -255 165 -42 7 -104 11 -137 8 l-61 -4 -2 185 -3 186 -118 3 -117 3 2 -523z m392 -68 c57 -13 88 -48 93 -107 10 -103 -37 -143 -172 -143 l-85 0 0 123 c0 68 3 127 7 130 9 10 111 8 157 -3z"/>
 <path d="M5596 5874 c-11 -28 -7 -994 4 -1015 10 -18 23 -19 229 -19 283 0 354 13 424 79 50 46 70 97 75 191 3 79 2 89 -26 140 -16 30 -39 59 -51 65 -26 12 -27 22 -2 30 25 8 70 60 88 103 24 57 28 169 9 233 -22 77 -83 144 -163 181 l-63 28 -259 0 c-227 0 -260 -2 -265 -16z m489 -217 c55 -46 41 -167 -21 -196 -14 -6 -72 -11 -129 -11 l-105 0 0 115 0 115 114 0 c105 0 117 -2 141 -23z m-26 -443 c43 -36 44 -93 2 -135 -29 -28 -32 -29 -130 -29 l-101 0 0 95 0 95 99 0 c92 0 102 -2 130 -26z"/>
 <path d="M6576 5874 c-3 -9 -6 -239 -6 -513 0 -373 3 -500 12 -509 14 -14 195 -17 215 -4 10 6 13 80 13 301 l1 293 28 -43 c93 -145 158 -248 170 -271 8 -16 18 -28 23 -28 4 0 8 -5 8 -11 0 -6 34 -61 75 -124 48 -72 83 -115 97 -119 13 -3 60 -6 105 -6 71 0 84 3 93 19 11 21 15 987 4 1015 -5 13 -25 16 -120 16 l-114 0 -1 -207 c0 -115 0 -255 1 -313 0 -57 -1 -102 -3 -100 -3 3 -30 48 -62 100 -32 52 -83 133 -113 180 -59 90 -95 147 -157 245 -60 95 -60 95 -169 95 -76 0 -95 -3 -100 -16z"/>
 <path d="M11395 3559 c-169 -16 -405 -80 -610 -164 -327 -133 -679 -393 -887 -653 -140 -175 -168 -211 -219 -282 -86 -121 -174 -273 -272 -470 -51 -102 -100 -203 -109 -225 -105 -250 -191 -498 -238 -687 -65 -256 -106 -572 -94 -729 8 -104 -5 -104 145 4 301 216 422 286 601 351 258 93 469 113 1088 100 492 -10 779 -4 919 20 50 9 147 34 214 57 450 150 780 454 1035 954 51 100 122 252 122 261 0 3 9 25 20 49 49 108 254 689 296 838 36 130 50 228 39 276 l-7 32 -60 -88 c-150 -220 -306 -405 -469 -555 l-93 -86 12 -41 c29 -96 -64 -159 -175 -119 -26 9 -38 10 -51 1 -142 -96 -411 -233 -587 -299 -240 -89 -384 -130 -950 -269 -236 -59 -461 -116 -500 -126 -201 -58 -356 -106 -498 -156 -87 -31 -161 -53 -164 -49 -10 10 56 74 112 110 146 93 363 165 1165 386 565 156 1022 328 1286 486 l61 36 -5 137 c-5 146 12 304 49 460 16 69 17 87 7 97 -17 16 -116 78 -248 153 -291 165 -584 225 -935 190z"/>
 <path d="M12721 3045 c-7 -41 -12 -116 -12 -165 0 -81 3 -96 27 -137 l27 -47 50 54 c103 113 177 230 154 247 -7 5 -62 35 -123 66 l-111 56 -12 -74z"/>
 </g>
<g id="layer103" fill="#6bc259" stroke="none">
 <path d="M3193 5648 c-17 -23 -25 -44 -9 -24 9 11 22 23 28 28 9 5 9 8 2 8 -6 0 -16 -6 -21 -12z"/>
 <path d="M2862 5340 c0 -19 2 -27 5 -17 2 9 2 25 0 35 -3 9 -5 1 -5 -18z"/>
 <path d="M13395 3223 c-22 -32 -61 -87 -86 -123 -37 -53 -62 -110 -128 -300 -216 -615 -385 -949 -616 -1220 -190 -221 -451 -396 -732 -489 -226 -75 -359 -84 -1098 -76 -705 8 -788 3 -1040 -70 -216 -63 -361 -145 -723 -411 -3 -2 -5 -117 -3 -211 1 -62 11 -66 64 -25 115 88 325 236 376 264 152 82 194 103 251 125 92 34 169 59 210 67 19 4 62 13 95 21 135 31 291 37 760 30 252 -3 462 -8 465 -10 13 -8 434 17 520 31 118 19 240 55 355 105 11 4 36 15 55 23 122 53 307 182 441 308 63 58 143 155 215 258 94 134 91 130 159 255 74 138 79 147 145 300 11 28 26 61 32 75 16 38 25 60 44 115 10 28 21 55 24 60 4 6 10 19 13 30 3 11 26 79 52 150 168 467 224 682 198 753 -8 22 -11 20 -48 -35z"/>
 </g>

</svg>